HIERARCHY
ROOT Hips
{
	OFFSET -0.001795 -0.223333 0.028219
	CHANNELS 6 Xposition Yposition Zposition Zrotation Yrotation Xrotation 
	JOINT LeftUpLeg
	{
		OFFSET 0.069520 -0.091406 -0.006815
		CHANNELS 3 Zrotation Yrotation Xrotation
		JOINT LeftLeg
		{
			OFFSET 0.034277 -0.375199 -0.004496
			CHANNELS 3 Zrotation Yrotation Xrotation
			JOINT LeftFoot
			{
				OFFSET -0.013596 -0.397961 -0.043693
				CHANNELS 3 Zrotation Yrotation Xrotation
				JOINT LeftToe
				{
					OFFSET 0.026358 -0.055791 0.119288
					CHANNELS 3 Zrotation Yrotation Xrotation
					End Site
					{
						OFFSET 0.000000 0.000000 0.000000
					}
				}
			}
		}
	}
	JOINT RightUpLeg
	{
		OFFSET -0.067670 -0.090522 -0.004320
		CHANNELS 3 Zrotation Yrotation Xrotation
		JOINT RightLeg
		{
			OFFSET -0.038290 -0.382569 -0.008850
			CHANNELS 3 Zrotation Yrotation Xrotation
			JOINT RightFoot
			{
				OFFSET 0.015774 -0.398415 -0.042312
				CHANNELS 3 Zrotation Yrotation Xrotation
				JOINT RightToe
				{
					OFFSET -0.025372 -0.048144 0.123348
					CHANNELS 3 Zrotation Yrotation Xrotation
					End Site
					{
						OFFSET 0.000000 0.000000 0.000000
					}
				}
			}
		}
	}
	JOINT Spine
	{
		OFFSET -0.002533 0.108963 -0.026696
		CHANNELS 3 Zrotation Yrotation Xrotation
		JOINT Spine1
		{
			OFFSET 0.005487 0.135180 0.001092
			CHANNELS 3 Zrotation Yrotation Xrotation
			JOINT Spine2
			{
				OFFSET 0.001457 0.052922 0.025425
				CHANNELS 3 Zrotation Yrotation Xrotation
				JOINT Neck
				{
					OFFSET -0.002778 0.213870 -0.042857
					CHANNELS 3 Zrotation Yrotation Xrotation
					JOINT Head
					{
						OFFSET 0.005152 0.064970 0.051349
						CHANNELS 3 Zrotation Yrotation Xrotation
						End Site
						{
							OFFSET 0.000000 0.000000 0.000000
						}
					}
				}
				JOINT LeftShoulder
				{
					OFFSET 0.078845 0.121749 -0.034090
					CHANNELS 3 Zrotation Yrotation Xrotation
					JOINT LeftArm
					{
						OFFSET 0.090977 0.030469 -0.008868
						CHANNELS 3 Zrotation Yrotation Xrotation
						JOINT LeftForeArm
						{
							OFFSET 0.259612 -0.012772 -0.027456
							CHANNELS 3 Zrotation Yrotation Xrotation
							JOINT LeftHand
							{
								OFFSET 0.249234 0.008986 -0.001171
								CHANNELS 3 Zrotation Yrotation Xrotation
								End Site
								{
									OFFSET 0.000000 0.000000 0.000000
								}
							}
						}
					}
				}
				JOINT RightShoulder
				{
					OFFSET -0.081759 0.118833 -0.038615
					CHANNELS 3 Zrotation Yrotation Xrotation
					JOINT RightArm
					{
						OFFSET -0.096012 0.032551 -0.009143
						CHANNELS 3 Zrotation Yrotation Xrotation
						JOINT RightForeArm
						{
							OFFSET -0.253742 -0.013329 -0.021401
							CHANNELS 3 Zrotation Yrotation Xrotation
							JOINT RightHand
							{
								OFFSET -0.255298 0.007772 -0.005559
								CHANNELS 3 Zrotation Yrotation Xrotation
								End Site
								{
									OFFSET 0.000000 0.000000 0.000000
								}
							}
						}
					}
				}
			}
		}
	}
}
MOTION
Frames: 5
Frame Time: 0.050000
0.000000 0.981582 0.000000 -4.565128 -12.674547 2.103990 11.095860 0.506307 -13.839241 -5.461749 1.668279 19.052056 4.619380 10.399471 7.027567 0.000000 0.000000 0.000000 -7.931953 0.980584 -13.088220 7.439857 0.802808 45.140847 -3.791507 -13.351814 13.045013 0.000000 0.000000 0.000000 0.896980 -0.368151 8.279700 -5.368988 1.690452 -23.055238 -0.087404 12.180779 26.861241 11.637846 -4.182468 -27.074136 0.000000 0.000000 0.000000 -13.377405 -7.565244 2.245563 -56.473540 -12.426319 -3.304297 7.426454 -23.996720 -0.429899 0.000000 0.000000 0.000000 20.352275 -3.685655 -2.150185 65.288998 6.115473 -5.466184 -0.812071 32.580721 2.024110 0.000000 0.000000 0.000000 
0.000057 0.985507 0.018474 -5.709167 -13.687320 2.461473 12.291398 0.653473 -11.912375 -5.715371 1.767999 18.462156 4.418681 9.833566 5.179316 0.000000 0.000000 0.000000 -10.102350 1.086805 -16.704244 9.713099 -0.211491 44.741864 -5.199203 -16.328052 15.695644 0.000000 0.000000 0.000000 2.616722 -0.443640 6.790488 -5.765290 1.790854 -21.206997 0.057199 13.085674 26.421978 11.048332 -3.472473 -28.639924 0.000000 0.000000 0.000000 -12.166947 -7.676605 2.270306 -57.616275 -12.536208 -3.260388 5.522747 -24.977378 -0.061341 0.000000 0.000000 0.000000 19.313914 -5.124411 -2.873641 67.846163 3.060178 -7.134944 0.649267 34.488096 2.648604 0.000000 0.000000 0.000000 
-0.003081 0.988890 0.035870 -6.231664 -14.368302 2.373413 12.917320 0.642916 -8.761927 -6.073678 1.756215 16.276113 5.514910 11.916789 5.580059 0.000000 0.000000 0.000000 -11.666442 1.045872 -17.426626 9.092119 -0.107822 39.298576 -4.267770 -15.023472 15.741688 0.000000 0.000000 0.000000 3.103779 -0.499169 7.303935 -4.255221 1.367865 -20.973154 -0.255336 13.575121 27.036961 12.015060 -3.884869 -29.414478 0.000000 0.000000 0.000000 -12.857890 -7.196729 2.030282 -57.481711 -13.426740 -2.858566 4.714398 -25.464277 0.127533 0.000000 0.000000 0.000000 17.899803 -5.138898 -2.786929 67.456649 1.907157 -7.757163 0.800937 35.802592 2.819827 0.000000 0.000000 0.000000 
-0.009539 0.990835 0.051339 -7.241460 -16.931770 3.352919 13.730433 0.728085 -6.110136 -6.358612 1.816870 14.245729 6.800491 14.316336 4.437251 0.000000 0.000000 0.000000 -12.664436 1.168376 -18.171029 7.789014 0.131402 29.468178 -5.110689 -16.986091 16.377143 0.000000 0.000000 0.000000 4.646949 -0.598892 7.137906 -4.793444 1.443940 -20.735623 -0.262423 15.311326 26.395466 12.335435 -4.001573 -29.498630 0.000000 0.000000 0.000000 -11.510251 -6.433116 1.714765 -58.972715 -14.717991 -2.231396 5.094935 -24.673215 0.046188 0.000000 0.000000 0.000000 18.276877 -4.877640 -2.669705 67.904051 2.084497 -7.657373 -1.186251 34.683259 2.118139 0.000000 0.000000 0.000000 
-0.020491 0.989418 0.065606 -7.097288 -17.503759 4.025372 14.287266 0.748866 -4.808995 -6.623356 1.786149 12.575442 7.786718 16.248257 4.279976 0.000000 0.000000 0.000000 -13.971956 1.159679 -18.262432 4.768259 0.334940 19.067258 -3.248793 -15.354503 20.934255 0.000000 0.000000 0.000000 4.623386 -0.597536 7.042697 -5.146109 1.522809 -20.252604 0.197721 15.300251 26.083019 12.514688 -4.176645 -29.419045 0.000000 0.000000 0.000000 -10.650625 -5.749323 1.516312 -60.315556 -14.743178 -2.204486 4.752512 -24.816731 0.156952 0.000000 0.000000 0.000000 18.084598 -4.319578 -2.459515 68.312768 2.317809 -7.544890 -1.934015 33.744207 1.775478 0.000000 0.000000 0.000000 
